<?xml version="1.0" encoding="UTF-8"?>
<svg width="630px" height="103px" viewBox="0 0 630 103" version="1.1" xmlns="http://www.w3.org/2000/svg" xmlns:xlink="http://www.w3.org/1999/xlink">
    <!-- Generator: Sketch 54.1 (76490) - https://sketchapp.com -->
    <title>Group</title>
    <desc>Created with Sketch.</desc>
    <g id="Page-1" stroke="none" stroke-width="1" fill="none" fill-rule="evenodd">
        <g id="Group" fill="#FFFFFF">
            <g id="color-palette-2" fill-rule="nonzero">
                <g id="color-palette">
                    <path d="M23.5,39 C17.1588162,39 12,44.1588162 12,50.5 C12,56.8411838 17.1588162,62 23.5,62 C29.8411838,62 35,56.8411838 35,50.5 C35,44.1588162 29.8411838,39 23.5,39 L23.5,39 Z M23.5,55.7478116 C20.6065027,55.7478116 18.2521884,53.3937057 18.2521884,50.5 C18.2521884,47.6062943 20.6065027,45.2521884 23.5,45.2521884 C26.3934973,45.2521884 28.7478116,47.6062943 28.7478116,50.5 C28.7478116,53.3937057 26.3934973,55.7478116 23.5,55.7478116 Z" id="Shape"></path>
                    <path d="M43.4998958,66 C37.1588629,66 32,71.1588629 32,77.5001042 C32,83.8411371 37.1588629,89 43.4998958,89 C49.8411371,89 55,83.8411371 55,77.5001042 C55,71.1588629 49.8411371,66 43.4998958,66 L43.4998958,66 Z M43.4998958,82.7477549 C40.6063723,82.7477549 38.2522451,80.3936277 38.2522451,77.4998958 C38.2522451,74.6061639 40.6063723,72.2520366 43.4998958,72.2520366 C46.3936277,72.2520366 48.7477549,74.6061639 48.7477549,77.4998958 C48.7479634,80.3936277 46.3936277,82.7477549 43.4998958,82.7477549 Z" id="Shape"></path>
                    <path d="M105.073464,66.2539978 C105.0525,66.2332513 105.031535,66.2129282 105.010147,66.1926051 L94.0115126,55.8170198 C100.168359,51.1630265 102.949676,42.9251789 100.420359,35.3044341 C88.4961013,-0.659646452 42.6753058,-12.0693819 15.3726967,14.8123833 C-5.07551309,34.9453924 -4.88471311,67.4079697 14.5163203,87.3985053 C31.9456127,105.357153 59.4089512,107.879336 79.6786434,94.6151164 C89.1707836,88.405558 84.8069488,73.6247259 73.4483146,73.6247259 C64.9650213,73.6247259 63.5394214,61.7672468 71.5528089,59.7368406 L90.9299129,80.2661505 C90.9502423,80.2875321 90.9705717,80.308702 90.9915364,80.3296602 C94.875936,84.2217484 101.185677,84.2321217 105.080241,80.3385516 C108.974382,76.4458283 108.974382,70.1448158 105.073464,66.2539978 L105.073464,66.2539978 Z M64.0332567,76.2260846 C66.5852329,78.6436885 69.9287855,79.9750642 73.4485263,79.9750642 C78.5215611,79.9750642 80.4342198,86.5318092 76.1999849,89.3016804 C58.4593984,100.91126 34.3648125,98.7303355 19.075614,82.9765342 C1.92733328,65.3074911 2.02834504,36.951665 19.9006492,19.3772513 C43.8497527,-4.17258155 83.9061018,5.67989522 94.3907831,37.3032972 C96.1672771,42.6556859 93.9473479,48.4716956 89.291066,51.3641406 L71.648103,34.720568 C72.7162441,29.5936388 71.236856,24.1887488 67.3607152,20.3140199 C62.495845,15.4504444 47.1697995,13.0262779 40.5278001,12.305019 C38.5132827,12.0856987 36.8075181,13.788183 37.0266946,15.8050404 C37.7541063,22.4708105 40.1648355,37.7573918 45.0383879,42.6296469 C48.9170699,46.5067045 54.326387,47.9826707 59.4508806,46.9150721 L66.8825505,54.7885855 C58.9689042,59.0833254 57.3620338,69.9060192 64.0332567,76.2260846 L64.0332567,76.2260846 Z M49.5301287,38.1390853 C47.1365524,35.7462502 44.9979409,26.645517 43.8688116,19.1448057 C51.3720579,20.2733736 60.4756099,22.4115347 62.8689744,24.8043698 C66.554527,28.4887812 66.5551623,34.4536154 62.8689744,38.1390853 C59.1916807,41.8156638 53.2237283,41.8315412 49.5301287,38.1390853 Z M100.588712,75.8482017 C99.1889474,77.2475328 96.9234888,77.2538838 95.5154654,75.8708535 C93.8895361,74.1482578 67.0799152,45.744376 65.5861271,44.1619251 C66.8393505,43.2315075 67.9625504,42.1086554 68.8945268,40.8545498 L100.613488,70.7767377 C101.998218,72.185807 101.990594,74.4465418 100.588712,75.8482017 L100.588712,75.8482017 Z" id="Shape"></path>
                </g>
            </g>
            <text id="VIRTUAL-STUDIO" font-family="Sequel-Regular, Sequel" font-size="70" font-weight="normal">
                <tspan x="133" y="83">VIRTUAL STUDIO</tspan>
            </text>
        </g>
    </g>
</svg>